<svg xmlns="http://www.w3.org/2000/svg" width="100" height="100" viewBox="0 0 100 100"><path d="M50,94.46411A44.46411,44.46411,0,1,1,94.46387,49.99976,44.51418,44.51418,0,0,1,50,94.46411ZM50,8.53589A41.46411,41.46411,0,1,0,91.46387,49.99976,41.51079,41.51079,0,0,0,50,8.53589Z" fill="#5881e8"/><path d="M72.85656,43.081,58.45513,41.002l-6.577-13.04069a1.96554,1.96554,0,0,0-3.40191,0L42.05038,41.002,27.49781,43.081a1.88991,1.88991,0,0,0-1.05838,3.21292L36.83414,56.46175,34.37725,70.78757A1.89,1.89,0,0,0,37.1365,72.791l13.04069-7.03065L63.0288,72.52638a1.85289,1.85289,0,0,0,.8694.22674,1.89,1.89,0,0,0,1.85218-2.1923L63.2934,56.235,73.68811,46.067a1.88993,1.88993,0,0,0-.83155-2.98608ZM60.15608,54.42068a1.88976,1.88976,0,0,0-.52919,1.6631l1.88994,11.4531L51.04659,61.98044a1.89017,1.89017,0,0,0-1.77657,0L38.83746,67.53688,40.803,56.00817a1.88973,1.88973,0,0,0-.5292-1.6631l-8.27794-8.20242,11.56648-1.701a1.88986,1.88986,0,0,0,1.43636-1.02053l5.17848-10.47033,5.17847,10.50809A1.89025,1.89025,0,0,0,56.792,44.47954l11.56648,1.701Z" fill="#5881e8"/></svg>