<?xml version="1.0" standalone="no"?>
<!DOCTYPE svg PUBLIC "-//W3C//DTD SVG 20010904//EN"
 "http://www.w3.org/TR/2001/REC-SVG-20010904/DTD/svg10.dtd">
<svg version="1.0" xmlns="http://www.w3.org/2000/svg"
 width="700.000000pt" height="700.000000pt" viewBox="0 0 700.000000 700.000000"
 preserveAspectRatio="xMidYMid meet">
<metadata>
Created by potrace 1.11, written by Peter Selinger 2001-2013
</metadata>
<g transform="translate(0.000000,700.000000) scale(0.100000,-0.100000)"
fill="#000000" stroke="none">
<path d="M672 6255 c-102 -22 -204 -78 -285 -155 -82 -77 -127 -146 -165 -252
l-27 -73 0 -2270 0 -2270 27 -80 c34 -100 91 -187 169 -259 72 -67 126 -99
222 -135 l72 -26 2815 0 2815 0 72 26 c96 36 150 68 222 135 78 72 135 159
169 259 l27 80 3 2230 c3 2473 7 2316 -64 2463 -52 108 -168 224 -276 276
-148 71 80 66 -2973 65 -2291 0 -2771 -3 -2823 -14z m5528 -2755 l0 -2150
-520 0 -520 0 0 183 c0 170 -2 186 -22 227 -13 25 -38 55 -57 68 l-35 22 -637
-2 c-626 -3 -638 -3 -666 -24 -58 -43 -68 -80 -71 -286 l-3 -188 -1435 0
-1434 0 0 2150 0 2150 2700 0 2700 0 0 -2150z"/>
<path d="M2630 4644 c-278 -33 -480 -128 -639 -300 -181 -197 -270 -456 -258
-754 16 -393 200 -694 520 -850 158 -77 245 -95 462 -95 184 0 241 7 365 47
108 34 233 105 319 178 31 27 38 16 -146 237 l-144 174 -38 -34 c-184 -166
-459 -154 -619 28 -83 95 -126 220 -125 370 1 355 289 584 597 476 56 -19 131
-65 178 -109 14 -13 31 -22 36 -18 12 7 293 372 295 383 3 15 -134 110 -216
151 -95 47 -180 77 -275 96 -71 15 -254 27 -312 20z"/>
<path d="M4395 4633 c-129 -18 -286 -77 -396 -148 -275 -178 -431 -483 -432
-845 -1 -291 85 -526 256 -707 126 -133 271 -217 452 -264 78 -21 114 -24 270
-24 201 0 292 14 424 66 82 33 193 98 255 151 l38 34 -152 184 c-84 102 -156
189 -161 194 -5 5 -27 -8 -53 -32 -87 -80 -201 -118 -328 -109 -238 16 -408
228 -408 507 0 440 428 662 754 390 26 -22 51 -40 55 -40 8 1 296 377 296 387
-1 16 -137 110 -212 148 -169 83 -315 116 -507 114 -66 -1 -134 -4 -151 -6z"/>
</g>
</svg>
