<svg xmlns="http://www.w3.org/2000/svg" width="194" height="194" viewBox="0 0 194 194"><path d="M97,0a97,97,0,1,0,97,97A96.964,96.964,0,0,0,97,0ZM63,84h0Z" fill="#06213d"/><path d="M106.4,80.2a1.8,1.8,0,0,0-3.6,0v3.7h3.5V80.2Z" fill="#fff"/><path d="M97.4,68.1v-.2a1.854,1.854,0,0,0-.2-.7c-.1-.1-.1-.2-.2-.3l-.2-.2a.349.349,0,0,0-.1-.2A6.593,6.593,0,0,1,93.6,61c0-5.5,4.1-16.9,6.6-16.9s6.6,11.4,6.6,16.9a6.659,6.659,0,0,1-6.6,6.6,1.8,1.8,0,1,0,0,3.6,9.034,9.034,0,0,0,2.8-.4v1.6a1.8,1.8,0,1,0,3.6,0V69a10.146,10.146,0,0,0,3.9-7.9c0-3.9-3.4-20.4-10.2-20.4S90.1,57.1,90.1,61.1a10.185,10.185,0,0,0,3.9,8v15h3.5v-16Z" fill="#fff"/><path d="M118.6,66,126,51.8l6.1,12h-9.8a1.8,1.8,0,1,0,0,3.6h11V84h3.5V65.7a1.268,1.268,0,0,0-.1-.6V65l-9.1-17.7a1.794,1.794,0,0,0-2.4-.8,2.047,2.047,0,0,0-.8.8l-9.2,17.6a2.353,2.353,0,0,0-.2.8V84h3.5V66Z" fill="#fff"/><path d="M127.7,70.5a1.793,1.793,0,0,0-1.8,1.8V83.9h3.5V72.3A1.653,1.653,0,0,0,127.7,70.5Z" fill="#fff"/><path d="M82.8,51.7V83.9H64.2V51.7Zm2.4-2.5H61.6V86.4H85.2Z" fill="#fff"/><path d="M76.6,66.5H61.7V69H76.6Z" fill="#fff"/><path d="M72.2,58.1H62.9v2.5h9.3Z" fill="#fff"/><path d="M72.2,75.9H62.9v2.5h9.3Z" fill="#fff"/><path d="M145.4,98.2H53.6V83.3h91.8ZM57.3,94.4h84.3V87H57.3Z" fill="#ffc871"/><path d="M125.5,150.9H73.4a16.73,16.73,0,0,1-16.7-16.7V97h3.7v37.2a12.974,12.974,0,0,0,13,13h52.1a12.974,12.974,0,0,0,13-13V97h3.7v37.2A16.6,16.6,0,0,1,125.5,150.9Z" fill="#ffc871"/></svg>