<svg xmlns="http://www.w3.org/2000/svg" width="194" height="194" viewBox="0 0 194 194"><path d="M97,194A97,97,0,1,0,0,97,97,97,0,0,0,97,194Z" fill="#06213d"/><path d="M81.9,43.6c0-2.2-.1-4,0-5.8.1-2.8,1.6-4.4,4.4-4.4q12.6-.15,25.2,0c3,0,4.4,1.5,4.5,4.6.1,1.8,0,3.6,0,5.6h36.7c5.2,0,7.2,2,7.2,7.3v70.6c0,5.1-2.1,7.2-7.1,7.2H45.1c-5.1,0-7.2-2-7.2-7.1V50.8c0-5.1,2-7.1,7.2-7.1H79A25.322,25.322,0,0,1,81.9,43.6Zm16.9,80.2h53.4c2.2,0,2.9-.6,2.9-2.9q-.15-34.8,0-69.6c0-2.3-.7-2.9-2.9-2.9q-53.25.15-106.6,0c-2.1,0-2.8.5-2.8,2.7q.15,34.8,0,69.6c0,2.4.7,3,3,3C63.5,123.7,81.2,123.8,98.8,123.8Zm-12-80.3h24.3v-5H86.8Z" fill="#fff"/><path d="M154.3,136.5H148a2.092,2.092,0,0,1-.4.6c2.6,2.7,5.3,5.3,8.2,8.3-1.3,1-2.4,1.9-3.6,2.9a2.994,2.994,0,0,1-.4.8,94.508,94.508,0,0,1-6.7-7.5c-3.2-4.2-7.2-5.2-12.4-5.2-24.1.3-48.1.1-72.2.1a5.33,5.33,0,0,0-4.3,1.8c-3.3,3.6-6.7,7-10.2,10.7-1.4-1.5-2.4-2.6-3.8-4,2.7-2.6,5.4-5.1,8.6-8.2h-7a6.251,6.251,0,0,1-.4-1.4c-.2-3.7-.2-3.7,3.4-3.7H150.7C155,131.5,155.1,131.7,154.3,136.5Z" fill="#fff"/><path d="M98.8,123.8c-17.6,0-35.3,0-52.9.1-2.3,0-3-.6-3-3q.15-34.8,0-69.6c0-2.2.7-2.8,2.8-2.7q53.25.15,106.6,0c2.2,0,2.9.6,2.9,2.9q-.15,34.8,0,69.6c0,2.3-.7,2.9-2.9,2.9C134.4,123.8,116.6,123.8,98.8,123.8ZM63.3,112h3.2q30.45,0,60.9.1a5.26,5.26,0,0,1,3.2,1.2c1.8,1.4,3.7,1.5,5.3,0a3.621,3.621,0,0,0,0-5.1c-1.4-1.5-3.6-1.3-5.3,0a5.646,5.646,0,0,1-2.9,1.2c-19.8.1-39.5.1-59.3,0-.8,0-1.5-.1-2.2-.1a3.711,3.711,0,0,1-.2-.9V66.3a4.014,4.014,0,0,1,1.2-2.2,3.77,3.77,0,0,0-.1-5.3,3.91,3.91,0,0,0-4.9-.1,3.423,3.423,0,0,0-.2,5.2c1.3,1,1.3,2.2,1.3,3.5V112Z" fill="#06213d"/><path d="M63.3,112V67.5c0-1.3,0-2.4-1.3-3.5-1.7-1.3-1.4-3.7.2-5.2a3.683,3.683,0,0,1,5,5.4A3.738,3.738,0,0,0,66,66.4c-.1,14,0,28.1,0,42.1a8.144,8.144,0,0,0,.2.9c.7,0,1.5.1,2.2.1h59.3a5.322,5.322,0,0,0,2.9-1.2c1.7-1.4,3.9-1.5,5.3,0a3.621,3.621,0,0,1,0,5.1c-1.5,1.5-3.5,1.4-5.3,0a5.5,5.5,0,0,0-3.2-1.2q-30.45-.15-60.9-.1C65.5,112,64.5,112,63.3,112Z" fill="#fff"/><path d="M97,74H85v33H97Z" fill="#bb95ff"/><path d="M113,97H101v10h12Z" fill="#bb95ff"/><path d="M129,63H117v44h12Z" fill="#bb95ff"/><path d="M81,87H69v20H81Z" fill="#bb95ff"/></svg>