<svg xmlns="http://www.w3.org/2000/svg" width="194" height="194" viewBox="0 0 194 194"><path d="M97,0a97,97,0,1,0,97,97A96.964,96.964,0,0,0,97,0Zm43,78h0Zm-28,28v0Zm6,34v0Zm1-75v0Zm13,56h0Z" fill="#06213d"/><path d="M60.4,74.8H51.6A12.4,12.4,0,0,1,39.2,62.4V53.6A12.4,12.4,0,0,1,51.6,41.2h8.8A12.4,12.4,0,0,1,72.8,53.6v8.8A12.462,12.462,0,0,1,60.4,74.8Zm-8.8-30a8.813,8.813,0,0,0-8.8,8.8v8.8a8.813,8.813,0,0,0,8.8,8.8h8.8a8.813,8.813,0,0,0,8.8-8.8V53.6a8.813,8.813,0,0,0-8.8-8.8Z" fill="#39d1a6"/><path d="M101.3,62.3h6.2a1.3,1.3,0,0,0,0-2.6h-6.2a1.3,1.3,0,0,0,0,2.6Z" fill="#fff"/><path d="M135.4,90.6a1.324,1.324,0,0,0-1.3,1.3v7.7a1.3,1.3,0,1,0,2.6,0V91.9A1.324,1.324,0,0,0,135.4,90.6Z" fill="#fff"/><path d="M118.8,59.7h-5.3a1.3,1.3,0,0,0,0,2.6h5.3a5.853,5.853,0,0,0,.2,1.3V58.5C118.9,58.9,118.9,59.3,118.8,59.7Z" fill="#fff"/><path d="M134.1,84a1.3,1.3,0,1,0,2.6,0V78h-2.5v6Z" fill="#fff"/><path d="M90.6,134.6H82.3a1.3,1.3,0,0,0,0,2.6h8.3a1.3,1.3,0,1,0,0-2.6Z" fill="#fff"/><path d="M56.4,127.1a1.324,1.324,0,0,0,1.3-1.3V115.2a1.3,1.3,0,0,0-2.6,0v10.6A1.324,1.324,0,0,0,56.4,127.1Z" fill="#fff"/><path d="M76.5,134.6H69.1a1.3,1.3,0,0,0,0,2.6h7.4a1.3,1.3,0,0,0,0-2.6Z" fill="#fff"/><path d="M85.4,62.3h8.5a1.3,1.3,0,0,0,0-2.6H80.5a.349.349,0,0,1-.2-.1l1.4-5.4a1.249,1.249,0,0,0-.4-1.3,1.2,1.2,0,0,0-1.4-.1L73,56.4V63l2.9,5a1.149,1.149,0,0,0,1.1.6h.2a1.174,1.174,0,0,0,1-.9l1.4-5.6A23.053,23.053,0,0,1,94.1,81h2.5A25.225,25.225,0,0,0,85.4,62.3Zm-8.8,1.8-3-5.1,5-2.6Z" fill="#fff"/><path d="M143.5,112a1.23,1.23,0,0,0,.1-1.3,1.356,1.356,0,0,0-1.1-.7h-5.8v-4.1a1.3,1.3,0,0,0-2.6,0V110h-.2a25.844,25.844,0,0,0-14.2-12.6l1.4-5.3a1.3,1.3,0,0,0-.5-1.3,1.41,1.41,0,0,0-1.4-.1L112,94.9v6.3l3.1,5.3a1.149,1.149,0,0,0,1.1.6h.2a1.174,1.174,0,0,0,1-.9l1.7-6.4A23.162,23.162,0,0,1,131,109.9h-2.7a1.267,1.267,0,0,0-1,2l6.6,9h2.9Zm-27.8-9.3-3.1-5.2,5.2-3.1Zm24.3,9.8-4.6,6.2-4.6-6.2Z" fill="#fff"/><path d="M108.9,127.5a1.267,1.267,0,0,0-2,1v6.1h-10V114H94.4v21.9a1.324,1.324,0,0,0,1.3,1.3h11.2v5.5a1.23,1.23,0,0,0,.7,1.1,1.268,1.268,0,0,0,.6.1,1.445,1.445,0,0,0,.7-.2L118,137v-2.7Zm.5,3.5,6.2,4.6-6.2,4.6Z" fill="#fff"/><path d="M70,89a1.267,1.267,0,0,0-2,1v6.3H57.7V75H55.2v33a1.3,1.3,0,0,0,2.6,0V98.7H68.1V104a1.23,1.23,0,0,0,.7,1.1,1.268,1.268,0,0,0,.6.1,1.445,1.445,0,0,0,.7-.2l9-6.6V95.5Zm.5,3.5,6.2,4.6-6.2,4.6Z" fill="#fff"/><path d="M61.7,134.6h-4v-2.5a1.3,1.3,0,1,0-2.6,0v3.7a1.324,1.324,0,0,0,1.3,1.3h5.3a1.324,1.324,0,0,0,1.3-1.3A1.24,1.24,0,0,0,61.7,134.6Z" fill="#fff"/><path d="M99.8,114.1H91a12.4,12.4,0,0,1-12.4-12.4V92.9A12.4,12.4,0,0,1,91,80.5h8.8a12.4,12.4,0,0,1,12.4,12.4v8.8A12.462,12.462,0,0,1,99.8,114.1ZM91,84.1a8.813,8.813,0,0,0-8.8,8.8v8.8a8.813,8.813,0,0,0,8.8,8.8h8.8a8.813,8.813,0,0,0,8.8-8.8V92.9a8.813,8.813,0,0,0-8.8-8.8Z" fill="#39d1a6"/><path d="M134.7,49.8a12,12,0,1,1-12,12A12.035,12.035,0,0,1,134.7,49.8Zm0-4a16,16,0,1,0,16,16A16.047,16.047,0,0,0,134.7,45.8Z" fill="#39d1a6"/><path d="M138.8,152.9H130a12.4,12.4,0,0,1-12.4-12.4v-8.8A12.4,12.4,0,0,1,130,119.3h8.8a12.4,12.4,0,0,1,12.4,12.4v8.8A12.462,12.462,0,0,1,138.8,152.9Zm-8.8-30a8.813,8.813,0,0,0-8.8,8.8v8.8a8.813,8.813,0,0,0,8.8,8.8h8.8a8.813,8.813,0,0,0,8.8-8.8v-8.8a8.813,8.813,0,0,0-8.8-8.8Z" fill="#39d1a6"/></svg>