<svg xmlns="http://www.w3.org/2000/svg" width="194" height="194" viewBox="0 0 194 194"><path d="M97,194A97,97,0,1,0,0,97,97,97,0,0,0,97,194Z" fill="#06213d"/><path d="M122.6,146.5a27,27,0,1,1,27-27A27.015,27.015,0,0,1,122.6,146.5Zm0-49a22,22,0,1,0,22,22A22.065,22.065,0,0,0,122.6,97.5Z" fill="#ff6a6a"/><path d="M99.3,133.2c-1.8.1-3.6.2-5.4.2-20.6,0-33.3-5.9-33.3-10.2V100.3c6.6,4.9,20.3,7.5,33.3,7.5,1.5,0,3,0,4.4-.1a23.434,23.434,0,0,1,2.6-4.3c-2.3.2-4.6.3-7,.3-20.6,0-33.3-5.9-33.3-10.2V70.6c6.6,4.9,20.3,7.5,33.3,7.5s26.7-2.6,33.3-7.5V92.9a19.088,19.088,0,0,1,4.1,1.1V63.8c0-9.3-19.3-14.3-37.5-14.3s-37.5,5-37.5,14.3v59.4c0,9.3,19.3,14.3,37.5,14.3a75.649,75.649,0,0,0,8.3-.4A38.856,38.856,0,0,1,99.3,133.2ZM93.9,53.6c20.6,0,33.3,5.9,33.3,10.2S114.5,74,93.9,74,60.6,68.1,60.6,63.8,73.2,53.6,93.9,53.6Z" fill="#fff"/><path d="M126,128a2.006,2.006,0,0,1-2-2V110a2,2,0,0,1,4,0v16A2.006,2.006,0,0,1,126,128Z" fill="#ff6a6a"/><path d="M132,128a2.006,2.006,0,0,1-2-2v-9a2,2,0,0,1,4,0v9A2.006,2.006,0,0,1,132,128Z" fill="#ff6a6a"/><path d="M120,128a2.006,2.006,0,0,1-2-2V114a2,2,0,0,1,4,0v12A2.006,2.006,0,0,1,120,128Z" fill="#ff6a6a"/><path d="M114,128a2.006,2.006,0,0,1-2-2v-7a2,2,0,0,1,4,0v7A2.006,2.006,0,0,1,114,128Z" fill="#ff6a6a"/></svg>