<svg xmlns="http://www.w3.org/2000/svg" width="194" height="194" viewBox="0 0 194 194"><path d="M97,194A97,97,0,1,0,0,97,97,97,0,0,0,97,194Z" fill="#06213d"/><path d="M98,36.038a58.8,58.8,0,1,0,58.8,58.8A58.767,58.767,0,0,0,98,36.038Zm0,1.4a57.3,57.3,0,1,1-57.3,57.3A57.231,57.231,0,0,1,98,37.438Z" fill="#fff"/><path d="M49.4,56.738v97.3h97.3v-97.3Zm1.4,1.4h94.3v94.3H50.8Z" fill="#fff"/><path d="M58,58.638a2.791,2.791,0,0,0-1,5.4l19,7.8H54.2a2.75,2.75,0,1,0-.1,5.5H88.8v26.9l-21.1,34.7a2.968,2.968,0,0,0,5,3.2v-.1l16.1-26.4v32.1a2.95,2.95,0,1,0,5.9.1v-38.2h6.4v38.1a2.95,2.95,0,1,0,5.9.1v-32.2l16.1,26.4a2.984,2.984,0,0,0,5.1-3.1v-.1l-21.1-34.7v-26.9h34.6a2.75,2.75,0,0,0,.1-5.5H120l19-7.8a2.9,2.9,0,0,0,1.6-3.6,2.837,2.837,0,0,0-2.7-1.8,3.553,3.553,0,0,0-1,.2l-31.6,12.9H90.7l-31.6-12.9C58.7,58.738,58.4,58.638,58,58.638Zm40,1.4a5.4,5.4,0,1,0,5.4,5.4A5.378,5.378,0,0,0,98,60.038Z" fill="#ffc871"/></svg>