<svg xmlns="http://www.w3.org/2000/svg" width="194" height="194" viewBox="0 0 194 194"><path d="M97,194A97,97,0,1,0,0,97,97,97,0,0,0,97,194Z" fill="#06213d"/><path d="M102.3,48.4a6.5,6.5,0,1,0-6.5-6.5A6.5,6.5,0,0,0,102.3,48.4Z" fill="#fff"/><path d="M83.7,73.4a3.553,3.553,0,0,0,1,.2,2.865,2.865,0,0,0,2.6-1.7l3.4-8.5,2.1-2.3c0,.2-.1.3-.1.5,0,0-1.6,11-.7,18.4,0,0,.9,5,.1,7.7,0,0-2.6,12.8-3.4,16a4.018,4.018,0,0,0,.8,3.8,3.013,3.013,0,0,0,2.4,1.1,3.632,3.632,0,0,0,3.4-2.6l4.6-17.2.4-1.6a13.3,13.3,0,0,0,.1-3.8l-.4-3.8a.523.523,0,0,1,.1-.5h.1a.438.438,0,0,1,.3.1l6.3,2.6a4.624,4.624,0,0,1,.5,2.3l-.1,7c0,1.6.1,3.6,1.7,4.5a3.528,3.528,0,0,0,4.1-.7,4.049,4.049,0,0,0,1.1-2.7l.5-10.1c.1-1.7.4-3.3-1.5-4.4,0,0-7-3.9-7-4-1.5-.7-1.2-1.9-1.2-3.3a13.4,13.4,0,0,1,.1-2V68s0-.5.7-.5h7.6c2.7,0,3.2-5.4-.8-5.4h-.1s-7.1-.2-7.2-.2c-.4,0-.4-.4-.4-.9a22.605,22.605,0,0,0-.7-5.3,6.537,6.537,0,0,0-2.5-4.1,9.5,9.5,0,0,0-3.5-1.7h-.7a4.622,4.622,0,0,0-3.5,1.9l-8.3,8.8-3.7,9.5A2.915,2.915,0,0,0,83.7,73.4Z" fill="#fff"/><path d="M68.6,86.9l13.5,6a2.533,2.533,0,0,0,3.3-1.3l3.7-7.9a2.533,2.533,0,0,0-1.3-3.3l-3.6-1.5.7-1.2a.809.809,0,0,0-.4-1.1L79.1,74a.809.809,0,0,0-1.1.4l-.8,1.5-2.8-1.2A2.533,2.533,0,0,0,71.1,76l-3.7,7.5A2.491,2.491,0,0,0,68.6,86.9Z" fill="#fff"/><path d="M123.3,149.8h10.9A2.8,2.8,0,0,0,137,147V89a2.8,2.8,0,0,0-2.8-2.8H123.3a2.8,2.8,0,0,0-2.8,2.8v58A2.862,2.862,0,0,0,123.3,149.8Zm-.1-60.9h0l10.9-.1a.1.1,0,0,1,.1.1v58a.1.1,0,0,1-.1.1H123.2a.1.1,0,0,1-.1-.1v-58Z" fill="#ffc871"/><path d="M95.5,149.8a2.734,2.734,0,0,0,2.8-2.8V113.9a2.862,2.862,0,0,0-2.8-2.8H84.6a2.734,2.734,0,0,0-2.8,2.8V147a2.862,2.862,0,0,0,2.8,2.8ZM84.4,147V113.9a.1.1,0,0,1,.1-.1H95.4a.1.1,0,0,1,.1.1V147a.1.1,0,0,1-.1.1H84.5Z" fill="#ffc871"/><path d="M101.1,105.5V147a2.8,2.8,0,0,0,2.8,2.8h10.9a2.734,2.734,0,0,0,2.8-2.8V105.6a2.8,2.8,0,0,0-2.8-2.8H103.9A2.711,2.711,0,0,0,101.1,105.5Zm13.8,0V147a.1.1,0,0,1-.1.1H103.9a.1.1,0,0,1-.1-.1V105.6a.1.1,0,0,1,.1-.1h11Z" fill="#ffc871"/><path d="M65.1,149.8H76a2.734,2.734,0,0,0,2.8-2.8V122.1a2.862,2.862,0,0,0-2.8-2.8H65.1a2.734,2.734,0,0,0-2.8,2.8V147A2.862,2.862,0,0,0,65.1,149.8Zm0-27.7h11V147H65V122.1Z" fill="#ffc871"/></svg>