<svg xmlns="http://www.w3.org/2000/svg" width="100" height="100" viewBox="0 0 100 100"><path d="M63.70317,33.59535h9.53348l8.08487,12.62649V82.53523H53.91519V46.22184ZM66.8549,48.96247a4.40459,4.40459,0,1,0-2.64156-5.64118l-.0012.00331a4.40459,4.40459,0,0,0,2.6036,5.63787Z" fill="#a64eff" fill-rule="evenodd"/><path d="M28.46645,39.46814h9.49434l8.124,12.62649V88.408H18.67848V52.09463ZM32.38164,54.385a4.40459,4.40459,0,1,0-4.385-4.42412l0,.01953A4.40459,4.40459,0,0,0,32.38164,54.385Z" fill="#ff9f06" fill-rule="evenodd"/><path d="M34.33924,11.592V39.46814h-1.9576V11.592Z" fill="#fff" fill-rule="evenodd"/><path d="M69.576,11.592V33.59535H67.61836V11.592Z" fill="#fff" fill-rule="evenodd"/></svg>